<?xml version="1.0" encoding="utf-8"?>
<!-- Generator: Adobe Illustrator 15.1.0, SVG Export Plug-In  -->
<!DOCTYPE svg PUBLIC "-//W3C//DTD SVG 1.1//EN" "http://www.w3.org/Graphics/SVG/1.1/DTD/svg11.dtd" [
	<!ENTITY ns_flows "http://ns.adobe.com/Flows/1.0/">
]>
<svg version="1.1"
	 xmlns="http://www.w3.org/2000/svg" xmlns:xlink="http://www.w3.org/1999/xlink" xmlns:a="http://ns.adobe.com/AdobeSVGViewerExtensions/3.0/"
	 x="0px" y="0px" width="101px" height="39px" viewBox="0 0 101 39" overflow="visible" enable-background="new 0 0 101 39"
	 xml:space="preserve">
<defs>
</defs>
<g>
	<g>
		<path fill="#1D1D1B" d="M94.916,10.87c-0.207,0-0.432,0.017-0.682,0.049c-0.073,0.079-0.146,0.157-0.226,0.241
			c-1.613,1.58-3.784,3.653-4.947,4.76c-0.171,0.658-0.257,1.34-0.257,2.026c0,0.867,0.136,1.716,0.404,2.524
			c0,0-0.199,0.402-0.305,0.601c-0.006,0.011-0.454,1.123-1.383,1.123c-0.043,0-0.087-0.002-0.133-0.008
			c-1.301-0.148-1.441-2.158-1.441-3.015v-6.923c0-0.794-0.645-1.439-1.438-1.439c-0.61,0-1.155,0.388-1.356,0.965l-0.068,0.194
			l-0.17-0.116c-0.938-0.643-2.01-0.982-3.1-0.982c-3.37,0-6.111,3.174-6.111,7.076c0,0.927,0.154,1.831,0.458,2.686
			c0,0-0.104,0.285-0.173,0.436c-0.004,0.012-0.443,1.127-1.384,1.127c-0.042,0-0.087-0.002-0.132-0.008
			c-1.301-0.148-1.441-2.158-1.441-3.015V4.135c0-0.793-0.646-1.439-1.438-1.439c-0.794,0-1.439,0.646-1.439,1.439v15.036
			c0,0.151,0.007,0.302,0.013,0.453c-0.059,0.96-0.391,1.515-0.863,2.107c-0.227,0.244-0.545,0.463-0.96,0.463
			c-0.044,0-0.087-0.002-0.134-0.008c-1.299-0.148-1.439-2.158-1.439-3.015V8.957h0.877c0.793,0,1.439-0.646,1.439-1.439
			c0-0.794-0.646-1.439-1.439-1.439H64.77V4.135c0-0.793-0.646-1.439-1.439-1.439s-1.439,0.646-1.439,1.439v1.943H60.83
			c-0.793,0-1.439,0.646-1.439,1.439c0,0.793,0.646,1.439,1.439,1.439h1.061V9.98l-0.041,0.045c-0.223,0.242-0.505,0.56-0.864,0.961
			c-0.536,0.601-1.204,1.349-2.042,2.263c-1.554,1.746-3.529,3.992-4.193,4.797c-0.332,0.421-0.568,0.749-0.703,0.976
			c-0.753,1.272-0.831,2.828-0.209,4.162c0.48,1.033,1.283,1.713,2.205,1.867c0.173,0.028,0.348,0.043,0.521,0.043
			c0.741,0,1.451-0.261,2.055-0.754c0.943-0.769,1.515-2.033,1.568-3.469c0.025-0.715-0.305-1.774-0.604-2.575
			c-0.336,0.311-0.806,0.781-1.232,1.208l-0.418,0.417c-0.168,0.167-0.736,0.755-0.963,1.268c-0.084,0.191-0.125,0.361-0.145,0.498
			c-0.021,0.141-0.024,0.35,0.006,0.539c0.021,0.133,0.027,0.275,0.027,0.275s-0.145-0.098-0.26-0.259
			c-0.141-0.199-0.166-0.382-0.186-0.49c-0.172-0.976,0.52-1.875,0.674-2.062c0.312-0.375,2.559-2.93,4.529-5.131l0.273-0.307v4.918
			c0,3.393,1.492,5.589,3.992,5.874c0.167,0.02,0.332,0.029,0.49,0.029c1.407,0,2.396-0.727,2.979-1.335l0.117-0.123l0.113,0.126
			c0.67,0.747,1.533,1.185,2.563,1.303c0.166,0.02,0.331,0.029,0.49,0.029c1.532,0,2.574-0.848,3.179-1.557l0.104-0.125l0.12,0.11
			c1.089,0.993,2.395,1.519,3.775,1.519c1.495,0,2.936-0.637,4.057-1.791l0.135-0.139l0.107,0.16
			c0.693,1.032,1.713,1.652,2.949,1.793c0.166,0.02,0.33,0.029,0.489,0.029c1.581,0,2.643-0.898,3.255-1.651l0.107-0.133
			l0.123,0.118c1.09,1.039,2.469,1.613,3.879,1.613c3.369,0,6.111-3.175,6.111-7.077C101.027,14.044,98.285,10.87,94.916,10.87z
			 M79.814,22.143c-1.783,0-3.234-1.883-3.234-4.198c0-2.314,1.451-4.198,3.234-4.198s3.233,1.883,3.233,4.198
			C83.048,20.26,81.598,22.143,79.814,22.143z M94.916,22.143c-1.783,0-3.233-1.883-3.233-4.198c0-2.314,1.45-4.198,3.233-4.198
			s3.233,1.883,3.233,4.198C98.149,20.26,96.699,22.143,94.916,22.143z M6.125,3.552c0.416,0,0.833,0.034,1.238,0.101
			c1.686,0.276,3.899,1.159,6.039,2.012c2.035,0.811,3.957,1.577,5.402,1.799c0.337,0.052,0.663,0.078,0.968,0.078h0.004
			c1.741,0,2.596-0.842,2.95-1.344c0.703-0.995,0.728-2.376,0.067-3.604C21.534,0.253,18.014,0,16.56,0
			c-0.229,0-0.411,0.006-0.528,0.012c-0.737,0.035-2.645,0.271-3.132,0.562c0.404,0.382,2.251,2.006,5.519,3.124
			c0.59,0.202,1.092,0.304,1.491,0.304c0.733,0,1.109-0.849,1.109-0.849s0.142,1.466-1.129,1.524
			c-0.035,0.001-0.071-0.001-0.11-0.003c-0.003-0.001-0.328-0.023-0.537-0.055c-1.124-0.173-2.983-0.914-4.78-1.63
			C12.181,2.08,9.822,1.14,7.829,0.812C7.27,0.72,6.697,0.674,6.126,0.674c-3.123,0-5.358,1.376-5.453,1.435
			C0.002,2.53-0.202,3.42,0.22,4.092C0.485,4.515,0.941,4.767,1.44,4.767c0.27,0,0.534-0.077,0.762-0.22
			C2.219,4.537,3.83,3.552,6.125,3.552z M88.378,15.037c0.275,0,0.551-0.079,0.759-0.211c0.572-0.592,2.766-2.911,4.734-5.014
			c0.494-0.573,0.891-1.053,1.21-1.467c1.579-2.05,2.126-4.148,1.497-5.757c-0.415-1.065-1.328-1.792-2.506-1.994
			c-0.203-0.035-0.407-0.052-0.607-0.052c-0.774,0-1.486,0.258-2.113,0.766c-1.257,1.019-2.033,3.04-2.131,5.546
			c-0.018,0.418-0.035,1.098-0.056,2.023c3.542-2.989,4.168-4.536,4.228-5.057c0.029-0.251-0.022-0.466-0.022-0.466l-0.041-0.18
			l0.179,0.157c0,0,0.175,0.14,0.25,0.267c0.108,0.185,0.256,0.588,0.056,1.168c-0.333,1.594-6.386,7.746-6.446,7.807
			c-0.273,0.27-0.426,0.631-0.428,1.015c-0.003,0.384,0.145,0.747,0.414,1.021C87.627,14.885,87.99,15.037,88.378,15.037z
			 M26.938,14.438c1.537-1.662,3.279-3.544,4.292-4.627c0.494-0.571,0.889-1.05,1.21-1.466c1.58-2.05,2.125-4.148,1.498-5.757
			c-0.417-1.065-1.329-1.792-2.506-1.993c-0.204-0.035-0.408-0.053-0.608-0.053c-0.775,0-1.487,0.257-2.114,0.766
			c-1.256,1.018-2.033,3.04-2.131,5.546c-0.017,0.423-0.036,1.121-0.056,2.023c3.351-2.827,4.062-4.369,4.208-4.962
			c0.048-0.195-0.055-0.567-0.055-0.567L30.55,2.98c0,0,0.476,0.293,0.673,0.879c0.072,0.215,0.081,0.528-0.052,0.917
			c-0.368,1.342-4.539,5.935-5.566,6.883c-0.235,0.242-0.576,0.606-1.015,1.082l-0.276,0.3l0.009-1.04
			c0.006-0.793-0.633-1.445-1.426-1.452c-0.808,0-1.445,0.627-1.452,1.425l0.001,0.095c0.019,1.84,0.021,3.459,0.018,4.503
			c-0.014,0.116-0.014,0.233,0,0.368c-0.001,0.736-0.005,1.519-0.013,2.348l-0.01,0.037l-0.01,0.018
			c-0.287,0.521-2.959,5.086-8.043,5.086c-5.271,0-8.845-3.894-8.893-9.688C4.454,9.729,8.409,5.896,8.578,5.736
			c0.261-0.25,0.372-0.458,0.321-0.605c-0.161-0.462-1.748-0.61-2.27-0.659C6.541,4.464,6.46,4.46,6.386,4.46
			c-0.555,0-0.733,0.201-0.741,0.209c-1.521,1.786-4.065,5.473-4.027,10.097c0.061,7.384,4.901,12.541,11.771,12.541
			c2.849,0,5.441-1.028,7.704-3.058l0.273-0.246l-0.012,0.368c-0.089,2.797-0.151,4.824-0.417,6.016
			c-0.224,1.001-0.659,1.773-0.794,1.957c-0.491,0.674-0.854,0.875-0.854,0.875s0.346-0.631,0.487-1.094
			c0.216-0.711,0.447-1.947,0.373-4.408c-0.006-0.232-0.003-1.107-0.001-1.486c-0.489,0.305-1.712,1.26-2.937,3.713
			c-0.925,1.852-0.921,4.544,0.559,5.601c0.445,0.317,0.977,0.485,1.539,0.485c0.471,0,0.939-0.113,1.395-0.338
			c1.535-0.756,3.223-2.953,3.359-6.852c0.088-2.551,0.161-7.639,0.206-11.459l0-0.061l0.041-0.044
			c0.605-0.65,1.535-1.656,2.546-2.749L26.938,14.438z M54.008,16.668c0.201-0.272,0.354-0.495,0.48-0.703l0.109-0.179l0.296,0.328
			c0.089,0.099,0.176,0.204,0.264,0.311l1.946-2.154l-0.056-0.065c-1.075-1.214-2.907-3.015-2.984-3.092
			c-0.271-0.265-0.628-0.412-1.008-0.412c-0.39,0-0.754,0.153-1.027,0.431c-0.27,0.274-0.416,0.637-0.412,1.021
			s0.157,0.744,0.43,1.013c0.005,0.005,0.158,0.155,0.393,0.389l0.086,0.086l-0.062,0.105c-0.145,0.244-0.314,0.508-0.534,0.83
			c-0.142,0.208,0.027,2.178,0.53,3.132c0.126,0.24,0.261,0.377,0.37,0.377c0.087,0,0.192-0.084,0.305-0.243
			c0.171-0.244,0.354-0.484,0.55-0.744C53.793,16.957,53.902,16.813,54.008,16.668z M45.056,10.87c-3.37,0-6.112,3.174-6.112,7.076
			c0,1.016,0.185,2,0.549,2.924c0,0-0.128,0.391-0.525,0.977c-0.098,0.145-0.282,0.254-0.494,0.266
			c-0.459,0-0.729-0.566-0.807-0.865c-0.118-0.447-0.146-1.096-0.197-2.28l-0.002-0.044c-0.103-2.363-0.317-7.281-4.22-7.97
			c-0.159-0.028-0.313-0.041-0.515-0.041c-0.086,0-0.176,0.002-0.292,0.005l-0.193,0.003c-0.393,0.046-0.796,0.119-1.093,0.328
			c-0.896,0.632-1.763,1.668-2.617,2.687c-0.19,0.228-0.38,0.454-0.57,0.675c-0.773,0.902-1.367,1.946-1.587,2.776
			c-0.04,2.872-0.071,5.364-0.08,6.073L26.3,23.643c-0.01,0.793,0.627,1.445,1.419,1.456h0.019c0.784,0,1.429-0.638,1.439-1.422
			l0.003-0.233c0.008-0.637,0.031-2.513,0.062-4.795c0.003-0.229,0.142-0.92,0.174-1.057c0.286-1.194,1.374-3.821,2.745-3.846
			c0.061-0.001,0.123-0.002,0.185-0.002c1.103,0,2.033,0.399,2.246,5.304c0.117,2.69,0.651,5.796,3.765,5.938
			c0.058,0.003,0.116,0.004,0.172,0.004c1.335,0,2.198-0.72,2.688-1.323l0.101-0.125l0.123,0.104
			c1.056,0.899,2.306,1.376,3.615,1.376c3.37,0,6.111-3.175,6.111-7.077C51.167,14.044,48.426,10.87,45.056,10.87z M45.056,22.143
			c-1.783,0-3.233-1.883-3.233-4.198c0-2.314,1.45-4.198,3.233-4.198s3.234,1.883,3.234,4.198
			C48.29,20.26,46.839,22.143,45.056,22.143z"/>
	</g>
</g>
<rect x="47.184" y="26.785" fill="#1D1D1B" width="53.843" height="11.964"/>
<path fill="#FFFFFF" d="M53.474,28.954h1.918v1.533h-1.918v6.142h-1.538v-6.142h-1.918v-1.533h1.918H53.474z"/>
<path fill="#FFFFFF" d="M60.753,28.954v1.533h-3.065v1.538h2.299v1.532h-2.299v1.533h3.065v1.538h-3.065h-1.538v-3.071v-1.532
	v-3.071H60.753z"/>
<path fill="#FFFFFF" d="M63.18,33.358c-0.23-0.08-0.475-0.205-0.733-0.377c-0.259-0.171-0.491-0.397-0.697-0.678
	c-0.206-0.281-0.31-0.631-0.31-1.05c0-0.632,0.226-1.173,0.676-1.624c0.451-0.45,0.994-0.676,1.629-0.676
	c0.631,0,1.173,0.226,1.623,0.676c0.451,0.451,0.676,0.992,0.676,1.624h-1.532c0-0.21-0.076-0.39-0.227-0.54
	c-0.15-0.151-0.331-0.227-0.54-0.227c-0.213,0-0.394,0.075-0.543,0.227c-0.149,0.15-0.224,0.33-0.224,0.54
	c0,0.272,0.11,0.479,0.331,0.621s0.388,0.228,0.502,0.26c0.054,0.019,0.201,0.063,0.44,0.133c0.239,0.07,0.492,0.186,0.757,0.348
	s0.504,0.38,0.717,0.654c0.212,0.275,0.318,0.626,0.318,1.055c0,0.635-0.225,1.178-0.676,1.628c-0.45,0.451-0.992,0.677-1.623,0.677
	c-0.635,0-1.178-0.226-1.629-0.677c-0.45-0.45-0.676-0.993-0.676-1.628h1.538c0,0.213,0.074,0.394,0.224,0.543
	s0.33,0.224,0.543,0.224c0.209,0,0.39-0.074,0.54-0.224s0.227-0.33,0.227-0.543c0-0.323-0.13-0.533-0.389-0.628
	c-0.259-0.096-0.434-0.16-0.525-0.195C63.549,33.485,63.41,33.437,63.18,33.358z"/>
<path fill="#FFFFFF" d="M70.124,28.954h1.919v1.533h-1.919v6.142h-1.537v-6.142h-1.919v-1.533h1.919H70.124z"/>
<path fill="#FFFFFF" d="M72.801,34.324v-2.685v-2.686h1.537h1.147c0.739,0,1.373,0.264,1.899,0.79
	c0.527,0.527,0.791,1.159,0.791,1.896c0,0.739-0.264,1.372-0.791,1.896c-0.526,0.525-1.16,0.788-1.899,0.788h-1.147v2.305h-1.537
	V34.324z M75.485,32.791c0.317,0,0.589-0.112,0.814-0.338c0.226-0.225,0.338-0.496,0.338-0.813c0-0.314-0.112-0.585-0.338-0.812
	c-0.226-0.228-0.497-0.341-0.814-0.341h-1.147v1.152v1.151H75.485z"/>
<path fill="#FFFFFF" d="M80.775,35.533l-0.495,1.096h-0.263h-0.062h-0.99h-0.323l3.284-7.317l0.162-0.357l0.167,0.362l3.289,7.312
	h-0.323h-0.99h-0.066h-0.263l-0.49-1.1l-0.023-0.053h-2.59L80.775,35.533z M82.693,33.943l-0.6-1.343l-0.604,1.343H82.693z"/>
<path fill="#FFFFFF" d="M91.17,29.256c0.465,0.201,0.873,0.475,1.226,0.821l-1.085,1.085c-0.457-0.45-1-0.676-1.629-0.676
	c-0.635,0-1.176,0.227-1.625,0.679s-0.674,0.994-0.674,1.625c0,0.635,0.225,1.177,0.674,1.626s0.99,0.674,1.625,0.674
	c0.499,0,0.944-0.144,1.338-0.431s0.672-0.654,0.833-1.103h-2.171v-1.532h2.171h0.891h0.7c0.051,0.241,0.076,0.496,0.076,0.766
	c0,1.058-0.376,1.961-1.129,2.712c-0.752,0.75-1.655,1.126-2.709,1.126c-1.057,0-1.96-0.376-2.711-1.126
	c-0.75-0.751-1.126-1.654-1.126-2.712c0-1.054,0.376-1.956,1.126-2.708c0.751-0.753,1.654-1.129,2.711-1.129
	C90.209,28.954,90.705,29.054,91.17,29.256z"/>
<path fill="#FFFFFF" d="M98.564,28.954v1.533h-3.065v1.538h2.299v1.532h-2.299v1.533h3.065v1.538h-3.065h-1.538v-3.071v-1.532
	v-3.071H98.564z"/>
</svg>
