<!DOCTYPE svg PUBLIC "-//W3C//DTD SVG 1.1//EN" "http://www.w3.org/Graphics/SVG/1.1/DTD/svg11.dtd" [
	<!ENTITY ns_flows "http://ns.adobe.com/Flows/1.0/">
]><svg xmlns="http://www.w3.org/2000/svg" width="101" height="36" viewBox="0 0 101 36" overflow="visible"><path fill="#1D1D1B" d="M94.916 10.87c-.207 0-.432.017-.682.05l-.226.24c-1.613 1.58-3.784 3.653-4.947 4.76-.17.658-.256 1.34-.256 2.026 0 .867.136 1.715.404 2.524 0 0-.2.402-.305.602-.006.01-.454 1.123-1.383 1.123-.043 0-.087-.002-.133-.008-1.3-.148-1.44-2.158-1.44-3.015V12.25c0-.795-.646-1.44-1.44-1.44-.61 0-1.154.388-1.355.965l-.068.194-.17-.117c-.938-.643-2.01-.982-3.1-.982-3.37 0-6.11 3.175-6.11 7.077 0 .927.153 1.83.457 2.686 0 0-.103.285-.172.436-.004.01-.443 1.126-1.384 1.126-.042 0-.087-.002-.132-.008-1.3-.148-1.44-2.158-1.44-3.015V4.135c0-.793-.647-1.44-1.44-1.44-.793 0-1.438.647-1.438 1.44V19.17c0 .152.007.303.013.453-.06.96-.39 1.516-.863 2.107-.227.244-.545.463-.96.463-.044 0-.087-.002-.134-.008-1.3-.148-1.44-2.158-1.44-3.015V8.957h.878c.793 0 1.44-.646 1.44-1.44 0-.793-.647-1.438-1.44-1.438h-.878V4.134c0-.793-.646-1.44-1.44-1.44s-1.438.647-1.438 1.44v1.943H60.83c-.793 0-1.44.646-1.44 1.44 0 .792.647 1.438 1.44 1.438h1.06V9.98l-.04.045c-.223.242-.505.56-.864.96-.536.602-1.204 1.35-2.042 2.264-1.554 1.745-3.53 3.99-4.193 4.796-.33.42-.567.75-.702.976-.753 1.27-.83 2.828-.21 4.162.48 1.033 1.284 1.713 2.206 1.867.173.03.348.044.52.044.742 0 1.452-.26 2.056-.754.943-.77 1.515-2.033 1.568-3.47.025-.714-.305-1.773-.604-2.574-.336.31-.806.78-1.232 1.208l-.418.418c-.168.167-.736.755-.963 1.268-.083.19-.124.36-.144.498-.02.14-.024.35.006.54.02.132.027.274.027.274s-.146-.098-.26-.26c-.142-.198-.167-.38-.187-.49-.172-.975.52-1.875.674-2.06.312-.377 2.56-2.932 4.53-5.133l.272-.308v4.918c0 3.393 1.49 5.59 3.99 5.874.168.02.333.03.49.03 1.408 0 2.397-.728 2.98-1.336l.117-.123.113.126c.67.748 1.533 1.186 2.563 1.304.166.02.33.03.49.03 1.532 0 2.574-.85 3.18-1.558l.103-.125.12.11c1.09.994 2.395 1.52 3.775 1.52 1.496 0 2.937-.637 4.058-1.79l.135-.14.107.16c.693 1.032 1.713 1.652 2.95 1.793.165.02.33.03.488.03 1.58 0 2.643-.9 3.255-1.652l.107-.132.123.118c1.09 1.04 2.47 1.613 3.88 1.613 3.368 0 6.11-3.176 6.11-7.078.004-3.898-2.738-7.072-6.107-7.072zM79.814 22.143c-1.783 0-3.234-1.883-3.234-4.198 0-2.314 1.45-4.198 3.234-4.198s3.233 1.883 3.233 4.198c0 2.315-1.45 4.198-3.233 4.198zm15.102 0c-1.783 0-3.233-1.883-3.233-4.198 0-2.314 1.45-4.198 3.233-4.198s3.233 1.883 3.233 4.198c0 2.315-1.45 4.198-3.234 4.198zM6.126 3.553c.415 0 .832.033 1.237.1 1.686.276 3.9 1.16 6.04 2.012 2.034.81 3.956 1.577 5.4 1.8.338.05.664.077.97.077h.003c1.74 0 2.596-.842 2.95-1.344.703-.995.728-2.376.067-3.604C21.533.254 18.013 0 16.56 0c-.23 0-.41.006-.528.012-.737.035-2.645.27-3.132.562.404.382 2.25 2.006 5.52 3.124.59.202 1.09.304 1.49.304.733 0 1.11-.85 1.11-.85s.14 1.467-1.13 1.525c-.035 0-.07 0-.11-.003-.003 0-.328-.023-.537-.055-1.124-.174-2.983-.915-4.78-1.63C12.18 2.08 9.823 1.14 7.83.81 7.27.72 6.696.674 6.125.674 3.003.674.768 2.05.673 2.11.003 2.53-.202 3.42.22 4.09c.265.423.72.675 1.22.675.27 0 .534-.077.762-.22.017-.01 1.628-.995 3.923-.995zm82.252 11.484c.275 0 .55-.08.76-.21.57-.593 2.765-2.912 4.733-5.015.495-.573.892-1.053 1.21-1.467 1.58-2.05 2.127-4.148 1.498-5.757C96.163 1.523 95.25.796 94.072.594c-.203-.035-.407-.052-.607-.052-.774 0-1.486.258-2.113.766-1.257 1.02-2.033 3.04-2.13 5.546-.02.418-.036 1.098-.057 2.023 3.542-2.99 4.168-4.536 4.228-5.057.03-.25-.022-.466-.022-.466l-.04-.18.18.157s.174.14.25.268c.107.185.255.588.055 1.168-.333 1.594-6.386 7.746-6.446 7.807-.274.27-.427.63-.43 1.015-.002.384.146.747.415 1.02.272.277.635.43 1.023.43zm-61.44-.6c1.537-1.66 3.28-3.543 4.292-4.626.494-.57.89-1.05 1.21-1.465 1.58-2.05 2.125-4.148 1.498-5.757-.417-1.065-1.33-1.792-2.506-1.993-.204-.035-.408-.053-.608-.053-.775 0-1.487.257-2.114.766-1.256 1.018-2.033 3.04-2.13 5.546-.018.423-.037 1.12-.057 2.023 3.35-2.827 4.062-4.37 4.208-4.962.05-.195-.054-.567-.054-.567l-.126-.368s.476.293.673.88c.072.214.08.527-.052.916-.367 1.342-4.538 5.935-5.565 6.883-.235.24-.576.605-1.015 1.08l-.276.3.01-1.04c.005-.792-.634-1.444-1.427-1.45-.808 0-1.445.626-1.452 1.424v.095c.02 1.84.022 3.458.02 4.502-.015.116-.015.233 0 .368-.002.736-.006 1.52-.014 2.348l-.01.037-.01.018c-.286.52-2.958 5.086-8.042 5.086-5.27 0-8.845-3.895-8.893-9.69-.04-5.01 3.914-8.844 4.083-9.004.26-.25.372-.458.32-.605-.16-.46-1.747-.61-2.27-.658-.087-.008-.168-.012-.242-.012-.555 0-.733.2-.74.21C4.123 6.454 1.58 10.14 1.617 14.765c.06 7.384 4.9 12.54 11.77 12.54 2.85 0 5.442-1.027 7.705-3.057l.273-.247-.012.368c-.09 2.798-.15 4.825-.417 6.017-.224 1-.66 1.773-.794 1.957-.49.674-.854.875-.854.875s.345-.632.486-1.095c.216-.71.447-1.947.373-4.408-.007-.232-.004-1.107-.002-1.486-.49.306-1.712 1.26-2.937 3.714-.924 1.852-.92 4.544.56 5.6.445.318.977.486 1.54.486.47 0 .938-.113 1.394-.338 1.535-.756 3.223-2.953 3.36-6.852.087-2.55.16-7.64.205-11.46v-.06l.04-.044c.605-.65 1.535-1.656 2.546-2.75l.082-.088zm27.07 2.23c.2-.27.354-.494.48-.702l.11-.18.295.33c.09.098.176.203.264.31l1.946-2.154-.056-.064c-1.075-1.214-2.907-3.015-2.984-3.092-.27-.265-.628-.412-1.008-.412-.39 0-.754.153-1.026.43-.27.275-.417.638-.414 1.022s.157.744.43 1.013c.006.005.158.155.393.39l.085.085-.062.105c-.145.244-.313.508-.533.83-.143.208.026 2.178.53 3.132.126.24.26.376.368.376.088 0 .193-.084.305-.243.172-.244.354-.484.55-.744.11-.143.22-.287.325-.432zm-8.952-5.797c-3.37 0-6.112 3.174-6.112 7.076 0 1.016.185 2 .55 2.924 0 0-.13.39-.526.977-.098.145-.282.254-.494.266-.46 0-.73-.566-.807-.865-.118-.447-.146-1.096-.197-2.28l-.002-.044c-.103-2.363-.317-7.28-4.22-7.97-.16-.028-.313-.04-.515-.04-.086 0-.176 0-.292.004l-.192.003c-.393.047-.796.12-1.093.33-.896.63-1.763 1.667-2.617 2.686-.19.228-.38.454-.57.675-.773.903-1.367 1.947-1.587 2.777-.04 2.872-.07 5.364-.08 6.073v.183c-.01.793.627 1.445 1.42 1.456h.018c.784 0 1.43-.64 1.44-1.423l.002-.233c.008-.637.03-2.513.062-4.795.003-.23.142-.92.174-1.058.286-1.194 1.374-3.82 2.745-3.846l.186-.002c1.103 0 2.033.4 2.246 5.304.117 2.69.65 5.797 3.765 5.938.058.003.116.004.172.004 1.334 0 2.197-.72 2.687-1.323l.1-.125.124.104c1.057.9 2.307 1.376 3.616 1.376 3.37 0 6.11-3.175 6.11-7.077 0-3.9-2.74-7.075-6.11-7.075zm0 11.273c-1.783 0-3.233-1.883-3.233-4.198 0-2.314 1.45-4.198 3.233-4.198s3.234 1.883 3.234 4.198c0 2.315-1.45 4.198-3.234 4.198z"/></svg>